<?xml version="1.0" standalone="no"?>
<!DOCTYPE svg PUBLIC "-//W3C//DTD SVG 20010904//EN"
 "http://www.w3.org/TR/2001/REC-SVG-20010904/DTD/svg10.dtd">
<svg version="1.0" xmlns="http://www.w3.org/2000/svg"
 width="500.000000pt" height="500.000000pt" viewBox="0 0 500.000000 500.000000"
 preserveAspectRatio="xMidYMid meet">

<g transform="translate(0.000000,500.000000) scale(0.100000,-0.100000)"
fill="#000000" stroke="none">
<path d="M0 2500 l0 -2500 2500 0 2500 0 0 2500 0 2500 -2500 0 -2500 0 0
-2500z m1194 490 c248 -63 401 -274 383 -528 -15 -222 -162 -396 -382 -452
-200 -51 -412 0 -544 129 -199 197 -202 518 -6 715 134 136 346 188 549 136z
m1181 5 c86 -18 178 -63 228 -110 20 -20 37 -40 37 -44 0 -7 -72 -78 -117
-115 -22 -18 -23 -18 -54 8 -75 63 -175 91 -276 76 -164 -23 -267 -142 -267
-310 0 -186 125 -311 313 -312 48 0 98 6 129 16 l51 17 3 147 3 147 103 3 102
3 0 -205 0 -206 -52 -30 c-134 -77 -340 -109 -482 -76 -290 69 -457 332 -391
615 67 282 353 443 670 376z m1906 -13 c76 -27 107 -44 168 -93 l53 -41 -58
-60 c-82 -83 -87 -85 -132 -49 -66 54 -127 74 -218 73 -136 0 -228 -54 -283
-164 -27 -54 -31 -71 -31 -148 0 -77 4 -94 31 -148 33 -67 80 -110 154 -143
61 -27 179 -29 252 -5 l52 17 3 147 3 147 103 3 102 3 -2 -208 -3 -208 -85
-42 c-250 -124 -540 -87 -711 89 -92 95 -132 200 -132 348 0 113 17 179 68
266 60 103 199 200 328 230 87 19 264 12 338 -14z m-903 -369 c-4 -426 -6
-433 -80 -518 -49 -55 -93 -79 -176 -95 -137 -27 -283 7 -372 87 l-50 45 42
50 c24 28 52 62 64 76 l21 26 38 -38 c94 -95 230 -89 271 10 11 26 14 95 14
294 l0 260 -176 0 -175 0 2 90 3 90 289 0 288 0 -3 -377z"/>
<path d="M983 2809 c-261 -34 -342 -402 -125 -566 53 -41 108 -56 193 -55 117
1 223 70 270 175 33 74 33 200 0 274 -56 126 -186 192 -338 172z"/>
</g>
</svg>
